<svg xmlns="http://www.w3.org/2000/svg" viewBox="0 0 407 282.53"><defs><style>.cls-1{fill:none;}.cls-2{fill:#db7d58;}.cls-3{fill:#efa96f;}.cls-4{fill:#f9bc80;}.cls-5{fill:#bc5c46;}.cls-6{fill:#a8423d;}.cls-7{fill:#fff;}.cls-8{fill:#f9e0cd;}.cls-9{fill:#70b2dd;}</style></defs><g id="Layer_2" data-name="Layer 2"><g id="OBJECTS"><polygon class="cls-1" points="346.59 0 0 0 0 282.53 407 282.53 407 0 346.59 0"/><rect class="cls-2" x="124.68" y="67.59" width="70.49" height="82.98"/><rect class="cls-3" x="72.03" y="67.59" width="63.35" height="82.98"/><polygon class="cls-4" points="135.38 67.59 117.76 89.56 55.19 89.56 72.03 67.59 135.38 67.59"/><polygon class="cls-3" points="135.38 67.59 148.54 89.56 208.44 89.56 195.17 67.59 135.38 67.59"/><rect class="cls-2" x="227.31" y="54.53" width="107.49" height="72.06"/><rect class="cls-3" x="281.06" y="54.53" width="53.75" height="72.06"/><path class="cls-2" d="M318.21,70.47H301.08a4,4,0,0,1-3.95-4h0a4,4,0,0,1,3.95-4h17.13a4,4,0,0,1,4,4h0A4,4,0,0,1,318.21,70.47Z"/><polygon class="cls-5" points="161.69 108.6 113.07 108.6 113.07 205.85 170.17 205.85 170.17 108.6 161.69 108.6"/><polygon class="cls-6" points="270.87 76.71 186.53 76.71 186.53 173.96 285.57 173.96 285.57 76.71 270.87 76.71"/><rect class="cls-5" x="235.57" y="126.2" width="129.82" height="94.13"/><rect class="cls-2" x="302.49" y="126.2" width="62.9" height="94.13"/><polygon class="cls-3" points="302.49 126.2 319.89 148.34 381.45 148.34 365.39 126.2 302.49 126.2"/><rect class="cls-2" x="89.53" y="137.35" width="70.49" height="82.98"/><rect class="cls-3" x="36.89" y="137.35" width="63.35" height="82.98"/><polygon class="cls-4" points="100.24 137.35 82.61 159.32 20.05 159.32 36.89 137.35 100.24 137.35"/><polygon class="cls-3" points="100.24 137.35 113.4 159.32 173.29 159.32 160.02 137.35 100.24 137.35"/><rect class="cls-2" x="249.58" y="159.32" width="91.01" height="61.01"/><rect class="cls-3" x="295.09" y="159.32" width="45.51" height="61.01"/><path class="cls-2" d="M326.54,172.82H312a3.35,3.35,0,0,1-3.35-3.35h0a3.34,3.34,0,0,1,3.35-3.34h14.5a3.34,3.34,0,0,1,3.35,3.34h0A3.35,3.35,0,0,1,326.54,172.82Z"/><rect class="cls-3" x="143.4" y="104.34" width="121.79" height="115.99"/><path class="cls-6" d="M229.06,126.19A7.11,7.11,0,0,1,224,133a6.87,6.87,0,0,1-2.09.32H186.68a7.14,7.14,0,0,1-5.05-12.19.36.36,0,0,1,.11-.1,7.11,7.11,0,0,1,4.94-2h35.24A7.14,7.14,0,0,1,229.06,126.19Z"/><path class="cls-7" d="M191.32,86.81a.83.83,0,0,1-.83.83.84.84,0,0,1-.84-.83.85.85,0,0,1,.84-.84A.84.84,0,0,1,191.32,86.81Z"/><path class="cls-7" d="M205.14,86.81a.84.84,0,0,1-1.68,0,.84.84,0,0,1,1.68,0Z"/><path class="cls-7" d="M189.85,89.27a.42.42,0,1,1-.53.64.41.41,0,0,1,0-.59A.4.4,0,0,1,189.85,89.27Z"/><path class="cls-7" d="M205.87,89.27a.41.41,0,0,1,0,.59.42.42,0,0,1-.59,0,.43.43,0,0,1-.05-.59A.42.42,0,0,1,205.87,89.27Z"/><path class="cls-8" d="M254.5,204.82H233.75a2.92,2.92,0,0,1-2.92-2.92h0a2.91,2.91,0,0,1,2.92-2.91H254.5a2.91,2.91,0,0,1,2.92,2.91h0A2.92,2.92,0,0,1,254.5,204.82Z"/><path class="cls-8" d="M256,209.81H232.29a1.45,1.45,0,0,1-1.46-1.45h0a1.46,1.46,0,0,1,1.46-1.46H256a1.46,1.46,0,0,1,1.46,1.46h0A1.45,1.45,0,0,1,256,209.81Z"/><path class="cls-9" d="M54.91,226.76s-3.78-7-1.47-8,4.75,4,4.75,4-1.47-13.85.82-15.32,6.06,19.34,6.06,19.34Z"/><path class="cls-9" d="M357.69,226.76s-3.78-7-1.48-8,4.75,4,4.75,4-1.47-13.85.82-15.32,6.07,19.34,6.07,19.34Z"/><path class="cls-9" d="M149.17,236.76s-4.31-10.94-1.68-12.49,5.42,6.25,5.42,6.25-1.68-21.53.94-23.83,6.92,30.07,6.92,30.07Z"/><path class="cls-9" d="M291.3,233.21s3.45-10.08,6.89-10.57,2,8.85,2,8.85,6.27-17.49,8.54-18.34,3.8,19.07,3.8,19.07,2.66-5.52,3.89-5.46,1.46,6.45,1.46,6.45Z"/></g></g></svg>