<svg width="985" height="1071" viewBox="0 0 985 1071" fill="none" xmlns="http://www.w3.org/2000/svg">
<mask id="mask0_507_6853" style="mask-type:alpha" maskUnits="userSpaceOnUse" x="100" y="0" width="725" height="1024">
<rect x="100" width="725" height="1024" fill="url(#paint0_linear_507_6853)"/>
</mask>
<g mask="url(#mask0_507_6853)">
<g clip-path="url(#clip0_507_6853)">
<path d="M610.665 123.118C654.641 123.118 692.697 149.353 711.055 187.531C723.779 175.278 740.821 167.772 759.565 167.772C789.222 167.772 814.641 186.537 825.376 213.226H501.398C512.794 161.621 557.389 123.118 610.665 123.118Z" fill="white"/>
<path d="M183.473 339.183C196.697 339.193 209.474 343.973 219.458 352.646C232.285 328.89 256.795 312.817 284.943 312.817C321.788 312.817 352.405 340.351 358.718 376.632H130.881C138.996 354.733 159.464 339.183 183.473 339.183Z" fill="white"/>
<path d="M747.637 745.382C783.441 745.382 813.928 768.934 825.457 801.89C834.318 796.514 844.583 793.911 854.934 794.416C865.285 794.92 875.248 798.51 883.543 804.723C894.713 788.019 913.34 777.071 934.444 777.071C968.621 777.071 996.331 805.755 996.331 841.17C996.338 849.073 994.924 856.913 992.156 864.316H671.345C667.066 853.761 664.875 842.475 664.893 831.085C664.893 783.753 701.953 745.382 747.637 745.382Z" fill="#5882C4"/>
<path d="M164.351 794.357C203.349 794.357 235.43 825.007 239.382 864.319H89.3202C93.2689 825.004 125.35 794.357 164.351 794.357Z" fill="#5882C4"/>
<path d="M728.124 551.32C737.18 551.32 745.331 555.29 751.067 561.634C758.584 541.211 777.657 526.699 800.012 526.699C823.471 526.699 843.326 542.672 849.995 564.693C854.166 562.738 858.717 561.726 863.323 561.727C876.28 561.727 887.474 569.578 892.679 580.949H696.821C698.249 564.339 711.716 551.32 728.124 551.32Z" fill="white"/>
<path d="M176.985 600.182H356.193V864.316H176.985V600.182Z" fill="#5882C4"/>
<path d="M176.985 600.182H356.193V659.692H176.985V600.182Z" fill="#2F2C44"/>
<path d="M356.193 864.316H698.759V597.048L527.478 365.28L356.193 597.048V864.316Z" fill="#E8B883"/>
<path d="M527.478 365.28L698.759 597.048V659.689L527.478 427.92L356.193 659.689V597.048L527.478 365.28Z" fill="#A15E42"/>
<path d="M345.295 627.571L527.478 381.053L709.66 627.571L722.759 613.752L527.478 349.506L332.193 613.752L345.295 627.571Z" fill="#E8B883"/>
<path d="M527.478 349.506H347.596L152.311 613.752H332.193L527.478 349.506Z" fill="#A15E42"/>
<path d="M152.312 613.751L165.414 627.571H345.296L332.194 613.751H152.312Z" fill="#2F2C44"/>
<path d="M459.315 322.477H595.641V864.316H459.315V322.477Z" fill="white"/>
<path d="M477.398 322.477H577.555V864.316H477.398V322.477Z" fill="#F7E1B9"/>
<path d="M369.171 322.477H459.314V441.74H369.171V322.477Z" fill="#E8B883"/>
<path d="M457.432 303.161H604.882V322.476H457.432V303.161Z" fill="#E8B883"/>
<path d="M359.928 303.161H457.429V322.476H359.928V303.161Z" fill="#2F2C44"/>
<path d="M482.406 96.5049L595.641 303.161H459.315L482.406 96.5049Z" fill="#A15E42"/>
<path d="M482.406 96.5049L459.315 303.161H369.172L482.406 96.5049Z" fill="#2F2C44"/>
<path d="M478.983 45H492.749V115.645H478.983V45Z" fill="#A15E42"/>
<path d="M478.983 115.645H472.061V44.9999H478.983V115.645Z" fill="#2F2C44"/>
<path d="M463.336 61.2686H508.398V75.5261H463.336V61.2686Z" fill="#A15E42"/>
<path d="M463.336 75.5261H456.414V61.2685H463.336V75.5261Z" fill="#2F2C44"/>
<path d="M637.678 655.93C640.41 654.276 643.541 653.399 646.735 653.393C656.754 653.393 664.878 661.808 664.878 672.186V803.056H646.735V672.186C646.756 668.925 645.933 665.714 644.346 662.866C642.759 660.017 640.462 657.628 637.678 655.93Z" fill="#5882C4"/>
<path d="M637.678 655.93C640.462 657.628 642.759 660.017 644.346 662.866C645.933 665.714 646.756 668.925 646.735 672.186V803.056H628.595V672.186C628.576 668.922 629.403 665.71 630.995 662.861C632.587 660.012 634.889 657.624 637.678 655.93Z" fill="#2F2C44"/>
<path d="M398.684 655.93C401.416 654.276 404.547 653.399 407.74 653.393C417.76 653.393 425.881 661.808 425.881 672.186V803.056H407.74V672.186C407.761 668.925 406.938 665.714 405.351 662.866C403.764 660.017 401.468 657.628 398.684 655.93Z" fill="#5882C4"/>
<path d="M398.684 655.93C401.468 657.628 403.765 660.017 405.352 662.866C406.939 665.714 407.762 668.925 407.741 672.186V803.056H389.598V672.186C389.579 668.922 390.406 665.709 391.999 662.86C393.591 660.011 395.895 657.623 398.684 655.93Z" fill="#2F2C44"/>
<path d="M552.869 441.749H502.979C499.786 441.749 496.723 443.018 494.464 445.276C492.206 447.535 490.937 450.599 490.937 453.793V732.257H564.899V453.784C564.899 450.59 563.631 447.526 561.372 445.267C559.114 443.009 556.051 441.74 552.857 441.74L552.869 441.749Z" fill="#A15E42"/>
<path d="M554.832 721.81V480.038C554.832 464.669 542.757 452.169 527.925 452.169C513.093 452.169 501.015 464.669 501.015 480.038V721.81H554.832Z" fill="#2F2C44"/>
<path d="M522.213 448.074H532.293V728.226H522.213V448.074Z" fill="#A15E42"/>
<path d="M496.761 519.272V508.831H557.742V519.272H496.761Z" fill="#A15E42"/>
<path d="M496.761 572.169V561.728H557.742V572.169H496.761Z" fill="#A15E42"/>
<path d="M496.761 625.065V614.624H557.742V625.065H496.761Z" fill="#A15E42"/>
<path d="M496.761 677.962V667.521H557.742V677.962H496.761Z" fill="#A15E42"/>
<path d="M539.236 382.107C539.236 369.479 531.158 358.809 520.064 355.324C522.603 354.525 525.25 354.117 527.913 354.117C542.838 354.117 554.94 366.65 554.94 382.11C554.94 397.569 542.838 410.105 527.913 410.105C525.25 410.105 522.603 409.698 520.064 408.898C531.161 405.404 539.236 394.737 539.236 382.107Z" fill="#5882C4"/>
<path d="M520.066 408.892C509.478 408.892 500.894 396.9 500.894 382.107C500.894 367.314 509.478 355.322 520.066 355.322C530.655 355.322 539.239 367.314 539.239 382.107C539.239 396.9 530.655 408.892 520.066 408.892Z" fill="#2F2C44"/>
<path d="M65.9995 864.316H1846.17V1019H65.9995V864.316Z" fill="#E8B883"/>
<path d="M65.9998 864.316H841.594V890.866H65.9998V864.316Z" fill="white"/>
<path d="M192.299 946.571C214.551 946.571 233.803 959.856 243.062 979.198H141.54C150.799 959.862 170.05 946.571 192.299 946.571Z" fill="#A15E42"/>
<path d="M254.881 960.227C272.255 960.227 287.285 970.608 294.516 985.705H215.246C222.477 970.608 237.507 960.227 254.881 960.227Z" fill="#A15E42"/>
<path d="M497.558 936.269C520.112 936.269 539.626 949.744 549.012 969.346H446.102C455.487 949.738 475.001 936.269 497.558 936.269Z" fill="#A15E42"/>
<path d="M559.055 950.565C571.858 950.565 582.934 958.217 588.26 969.34H529.851C535.179 958.217 546.255 950.565 559.055 950.565Z" fill="#A15E42"/>
<path d="M235.623 204.234C230.286 193.787 219.693 186.667 207.487 186.667C204.293 186.664 201.117 187.16 198.075 188.134C200.437 185.659 203.275 183.688 206.419 182.339C209.563 180.99 212.948 180.291 216.369 180.284C220.03 180.294 223.645 181.094 226.968 182.629C230.291 184.165 233.243 186.4 235.623 189.182C238.002 186.4 240.954 184.165 244.277 182.629C247.599 181.094 251.214 180.294 254.874 180.284C258.296 180.29 261.681 180.989 264.826 182.338C267.97 183.687 270.809 185.659 273.172 188.134C270.129 187.16 266.954 186.665 263.759 186.667C251.539 186.667 240.973 193.799 235.623 204.234Z" fill="#2F2C44"/>
<path d="M747.616 337.797C741.684 326.19 729.913 318.277 716.35 318.277C712.799 318.274 709.27 318.824 705.889 319.907C708.515 317.156 711.67 314.966 715.164 313.466C718.658 311.967 722.419 311.191 726.221 311.184C734.719 311.184 742.351 315.007 747.616 321.076C752.881 315.007 760.513 311.184 769.011 311.184C772.813 311.191 776.574 311.967 780.068 313.466C783.563 314.966 786.717 317.156 789.343 319.907C785.962 318.824 782.433 318.274 778.882 318.277C765.319 318.277 753.548 326.19 747.616 337.797Z" fill="#2F2C44"/>
</g>
</g>
<defs>
<linearGradient id="paint0_linear_507_6853" x1="462.5" y1="0" x2="462.5" y2="1024" gradientUnits="userSpaceOnUse">
<stop stop-color="#F6C67E"/>
<stop offset="1" stop-color="#FDB54A"/>
</linearGradient>
<clipPath id="clip0_507_6853">
<rect width="1843" height="974" fill="white" transform="matrix(-1 0 0 1 1909 45)"/>
</clipPath>
</defs>
</svg>
