<svg width="2914" height="1934" viewBox="0 0 2914 1934" fill="none" xmlns="http://www.w3.org/2000/svg">
<path d="M2885.55 1044.27C2894.63 1032.51 2900.56 1018.61 2902.77 1003.89C2904.98 989.166 2903.39 974.121 2898.15 960.195C2892.92 946.27 2884.21 933.93 2872.87 924.36C2861.53 914.79 2847.94 908.311 2833.39 905.543C2833.39 904.641 2833.39 903.8 2833.39 902.898C2833.37 878.955 2824.89 855.8 2809.45 837.572C2794.02 819.344 2772.64 807.232 2749.14 803.401C2747.05 803.07 2744.95 802.77 2742.83 802.559C2740.23 802.289 2737.63 802.078 2734.97 802.018C2733.71 798.747 2732.27 795.546 2730.67 792.429C2730.31 791.708 2729.95 790.986 2729.56 790.265C2728.04 787.409 2726.57 784.584 2724.69 781.878L2724.36 781.367C2715.49 767.754 2703.74 756.284 2689.94 747.781C2676.14 739.278 2660.65 733.954 2644.56 732.19H2643.27C2639.73 731.808 2636.17 731.608 2632.6 731.589C2621.56 731.545 2610.58 733.187 2600.03 736.458C2596.61 737.52 2593.25 738.754 2589.95 740.156C2583.42 742.934 2577.18 746.347 2571.3 750.346C2568.31 752.33 2565.57 754.434 2562.85 756.688C2557.41 761.218 2552.4 766.25 2547.9 771.718C2531.67 791.473 2522.81 816.31 2522.86 841.937C2522.86 848.162 2523.38 854.376 2524.41 860.514C2520.21 860.021 2515.99 859.77 2511.77 859.763C2490.14 859.721 2469.01 866.214 2451.09 878.399C2445.34 882.318 2439.96 886.776 2435.04 891.716C2432.59 894.181 2430.26 896.766 2428.05 899.471C2411.89 919.158 2403.11 943.927 2403.26 969.456C2403.4 994.985 2412.45 1019.65 2428.83 1039.16C2414.3 1059.14 2406.49 1083.27 2406.53 1108.02C2406.53 1111.63 2406.74 1115.18 2407.07 1118.7C2407.07 1119.72 2407.28 1120.74 2407.4 1121.7C2407.73 1124.38 2408.11 1126.99 2408.59 1129.61C2408.77 1130.51 2408.92 1131.44 2409.1 1132.34C2409.79 1135.62 2410.6 1138.81 2411.55 1141.96C2411.85 1142.95 2412.24 1143.95 2412.57 1144.97C2413.29 1147.19 2414.09 1149.36 2414.93 1151.49C2415.44 1152.72 2415.92 1153.96 2416.45 1155.16C2417.41 1157.32 2418.43 1159.43 2419.44 1161.5C2420.13 1162.85 2420.82 1164.21 2421.56 1165.53C2422.61 1167.33 2423.66 1169.17 2424.76 1170.94C2433.88 1185.3 2446.02 1197.49 2460.32 1206.64C2474.61 1215.79 2490.73 1221.68 2507.53 1223.9C2524.33 1226.13 2541.42 1224.63 2557.58 1219.51C2573.74 1214.39 2588.6 1205.77 2601.1 1194.26C2616.79 1209.2 2636.85 1218.65 2658.31 1221.19C2679.76 1223.74 2701.46 1219.25 2720.18 1208.39C2742.26 1228.07 2770.96 1238.57 2800.46 1237.76C2829.96 1236.95 2858.05 1224.9 2879.04 1204.04C2900.03 1183.18 2912.34 1155.07 2913.5 1125.42C2914.65 1095.76 2904.55 1066.77 2885.25 1044.33L2885.55 1044.27Z" fill="#FFDFA2"/>
<path d="M2779.53 1066.09L2669.04 1180.65V1053.53L2723.29 988.838L2669.04 1034.83V952.857H2648.33V1118.33L2532.93 1043.28L2648.33 1136.01V1441.93H2669.04V1202.17L2779.53 1066.09Z" fill="#FFDFA2"/>
<path d="M2728.22 668.554C2744.04 648.073 2754.37 623.848 2758.21 598.201C2762.05 572.553 2759.28 546.343 2750.16 522.082C2741.04 497.821 2725.88 476.322 2706.13 459.646C2686.37 442.97 2662.7 431.676 2637.36 426.845C2637.36 425.312 2637.36 423.839 2637.36 422.276C2637.33 380.539 2622.55 340.171 2595.65 308.39C2568.74 276.609 2531.48 255.488 2490.52 248.803C2486.87 248.202 2483.22 247.66 2479.49 247.3C2474.98 246.819 2470.52 246.458 2465.8 246.368C2463.62 240.627 2461.05 235.096 2458.33 229.625C2457.7 228.362 2457.04 227.13 2456.38 225.897C2453.75 220.887 2450.92 216.008 2447.87 211.258C2447.69 210.958 2447.51 210.657 2447.3 210.357C2431.83 186.637 2411.34 166.651 2387.29 151.83C2363.24 137.009 2336.24 127.719 2308.2 124.627L2305.99 124.386C2299.86 123.785 2293.67 123.364 2287.37 123.364C2268.11 123.362 2248.97 126.28 2230.58 132.021C2224.62 133.81 2218.76 135.897 2213.01 138.274C2201.63 143.111 2190.75 149.051 2180.52 156.009C2175.42 159.496 2170.51 163.193 2165.78 167.101C2139.77 188.641 2119.88 216.716 2108.13 248.48C2096.39 280.244 2093.2 314.567 2098.89 347.969C2091.57 347.103 2084.21 346.661 2076.84 346.647C2039.16 346.577 2002.33 357.887 1971.12 379.111C1961.07 385.942 1951.69 393.723 1943.12 402.347C1938.85 406.655 1934.79 411.154 1930.92 415.844C1902.74 450.155 1887.44 493.332 1887.69 537.836C1887.94 582.339 1903.73 625.339 1932.3 659.326C1906.99 694.151 1893.38 736.186 1893.44 779.324C1893.44 785.606 1893.83 791.768 1894.37 797.9C1894.55 799.704 1894.76 801.507 1894.97 803.281C1895.5 807.91 1896.19 812.509 1897.06 817.048C1897.36 818.641 1897.6 820.265 1897.93 821.858C1899.12 827.509 1900.56 833.1 1902.2 838.571C1902.74 840.314 1903.37 842.028 1903.93 843.771C1905.22 847.619 1906.59 851.436 1908.09 855.164C1908.95 857.298 1909.82 859.432 1910.72 861.506C1912.39 865.294 1914.15 868.961 1916.04 872.598C1917.23 874.943 1918.46 877.287 1919.77 879.572C1921.57 882.788 1923.39 885.975 1925.33 889.041H1925.51C1941.39 914.108 1962.53 935.376 1987.45 951.353C2012.37 967.33 2040.46 977.628 2069.76 981.523C2099.05 985.419 2128.84 982.818 2157.03 973.904C2185.22 964.99 2211.13 949.978 2232.94 929.922C2260.28 955.973 2295.26 972.442 2332.67 976.873C2370.07 981.303 2407.9 973.46 2440.51 954.51C2479 988.904 2529.05 1007.28 2580.51 1005.91C2631.97 1004.54 2680.99 983.522 2717.6 947.127C2754.22 910.733 2775.69 861.689 2777.67 809.951C2779.64 758.213 2761.96 707.659 2728.22 668.554Z" fill="#FDB54A"/>
<path d="M2543.45 706.609L2350.82 906.295V684.726L2445.39 571.943L2350.82 652.141V509.208H2314.71V797.63L2113.6 666.841L2314.71 828.471V1361.67H2350.82V943.809L2543.45 706.609Z" fill="#D27E00"/>
<path d="M154.133 1278.94V1259.82H192.21V1141H281.576V913.329H348.286V1233.25H394.075V1062.78H498.862V1272.93H539.659V900.493H563.749V935.302H604.576V1033.39H616.86V1208.75H713.967V1063.24H755.153V1031.25H847.417V1169.26H909.824V1138.17H1015.15V923.038H1115.15V1177.64H1230.19V1038.05H1242.24V869.412H1319.44V1102.25H1321.68V1241.85H1370.01V1031.67H1465.05V1062.57H1494.2V1202.17H1548.44V882.217H1577.55V970.322H1627.5V1109.89H1705V1359.44H154.133V1278.94Z" fill="#FFDFA2"/>
<path d="M1817.91 1424.31H100.723C81.6904 1424.31 66.2617 1439.83 66.2617 1458.97C66.2617 1478.11 81.6904 1493.63 100.723 1493.63H1817.91C1836.95 1493.63 1852.37 1478.11 1852.37 1458.97C1852.37 1439.83 1836.95 1424.31 1817.91 1424.31Z" fill="#FFDFA2"/>
<path d="M1981.91 1869.04H264.749C255.593 1869.05 246.808 1865.41 240.32 1858.91C233.832 1852.41 230.17 1843.59 230.139 1834.38C230.17 1825.2 233.815 1816.39 240.277 1809.9C246.74 1803.41 255.494 1799.75 264.63 1799.72H1981.91C1991.05 1799.75 1999.8 1803.41 2006.26 1809.9C2012.72 1816.39 2016.37 1825.2 2016.4 1834.38C2016.37 1843.57 2012.72 1852.37 2006.26 1858.87C1999.8 1865.36 1991.05 1869.02 1981.91 1869.04Z" fill="#FFDFA2"/>
<path d="M2257.15 1499.34H2767.64C2777.52 1499.31 2786.99 1495.34 2793.98 1488.32C2800.97 1481.29 2804.91 1471.76 2804.94 1461.82C2804.92 1451.88 2800.98 1442.35 2793.99 1435.32C2787 1428.29 2777.52 1424.33 2767.64 1424.31H2257.15C2247.27 1424.34 2237.8 1428.3 2230.81 1435.33C2223.82 1442.36 2219.88 1451.89 2219.85 1461.82C2219.88 1471.76 2223.82 1481.29 2230.81 1488.32C2237.8 1495.34 2247.27 1499.31 2257.15 1499.34Z" fill="#FFDFA2"/>
<path d="M168.48 1817.34H2623.85C2644.28 1817.28 2663.86 1809.08 2678.3 1794.55C2692.75 1780.02 2700.9 1760.33 2700.96 1739.79C2700.89 1719.24 2692.74 1699.57 2678.29 1685.05C2663.84 1670.53 2644.27 1662.35 2623.85 1662.29H168.48C148.051 1662.35 128.474 1670.53 114.026 1685.06C99.5777 1699.58 91.4322 1719.27 91.3691 1739.82C91.4401 1760.36 99.588 1780.04 114.035 1794.56C128.481 1809.09 148.054 1817.28 168.48 1817.34Z" fill="#FFDFA2"/>
<path d="M1350.61 1775.59H2238.89C2249.2 1775.52 2259.07 1771.36 2266.35 1764.02C2273.62 1756.67 2277.72 1746.73 2277.74 1736.36C2277.68 1726.01 2273.57 1716.11 2266.29 1708.8C2259.02 1701.48 2249.17 1697.34 2238.89 1697.28H1350.61C1340.3 1697.3 1330.42 1701.42 1323.11 1708.74C1315.81 1716.06 1311.67 1725.99 1311.61 1736.36C1311.64 1746.75 1315.76 1756.71 1323.07 1764.06C1330.38 1771.41 1340.28 1775.55 1350.61 1775.59Z" fill="#FDB54A"/>
<path d="M2145.01 1739.79H2520.55C2526.45 1739.77 2532.09 1737.41 2536.26 1733.22C2540.43 1729.03 2542.78 1723.35 2542.79 1717.42C2542.78 1711.49 2540.43 1705.82 2536.26 1701.62C2532.09 1697.43 2526.45 1695.07 2520.55 1695.06H2145.01C2139.12 1695.07 2133.47 1697.43 2129.3 1701.62C2125.14 1705.82 2122.79 1711.49 2122.77 1717.42C2122.79 1723.35 2125.14 1729.03 2129.3 1733.22C2133.47 1737.41 2139.12 1739.77 2145.01 1739.79Z" fill="#FDB54A"/>
<path d="M2400.76 934.01L2403.45 933.709C2402.14 933.862 2400.87 934.274 2399.71 934.923C2398.56 935.571 2397.54 936.443 2396.72 937.487C2395.9 938.532 2395.3 939.729 2394.94 941.01C2394.58 942.291 2394.48 943.63 2394.64 944.951L2396.67 962.206C2396.82 963.527 2397.23 964.806 2397.87 965.968C2398.52 967.129 2399.39 968.152 2400.42 968.976C2401.46 969.8 2402.65 970.409 2403.93 970.769C2405.2 971.129 2406.53 971.232 2407.85 971.073L2571.78 951.625C2574.43 951.308 2576.85 949.947 2578.5 947.839C2580.16 945.731 2580.91 943.049 2580.6 940.382L2578.6 923.128C2578.45 921.795 2578.05 920.504 2577.4 919.328C2576.76 918.153 2575.89 917.117 2574.85 916.279C2573.81 915.441 2572.62 914.818 2571.34 914.446C2570.05 914.074 2568.71 913.96 2567.39 914.11L2570.11 913.81L2589.27 888.62L2571.09 733.693C2570.48 728.397 2568.83 723.275 2566.24 718.621C2563.65 713.968 2560.18 709.874 2556.01 706.575C2551.85 703.277 2547.07 700.838 2541.97 699.4C2536.86 697.961 2531.53 697.551 2526.26 698.193L2393.26 713.974C2388 714.596 2382.91 716.257 2378.28 718.862C2373.66 721.467 2369.59 724.964 2366.32 729.153C2363.04 733.342 2360.62 738.141 2359.19 743.273C2357.76 748.406 2357.35 753.772 2357.99 759.063L2376.16 913.99L2400.76 934.01Z" fill="#FFDFA2"/>
<path d="M2102.21 977.145H2105.74C2104.02 977.105 2102.31 977.406 2100.7 978.031C2099.1 978.656 2097.63 979.593 2096.39 980.788C2095.15 981.983 2094.15 983.412 2093.46 984.994C2092.76 986.577 2092.39 988.281 2092.35 990.011L2091.81 1012.62C2091.77 1014.34 2092.07 1016.06 2092.69 1017.68C2093.31 1019.29 2094.24 1020.76 2095.43 1022.01C2096.62 1023.26 2098.04 1024.27 2099.61 1024.97C2101.19 1025.66 2102.88 1026.04 2104.6 1026.08L2319.32 1031.04C2322.79 1031.11 2326.15 1029.8 2328.66 1027.39C2331.18 1024.98 2332.64 1021.67 2332.74 1018.18L2333.24 995.572C2333.28 993.842 2332.98 992.122 2332.36 990.51C2331.74 988.897 2330.81 987.423 2329.62 986.173C2328.43 984.922 2327.01 983.919 2325.44 983.221C2323.87 982.523 2322.17 982.144 2320.45 982.105H2323.98L2353.24 953.158L2357.9 750.346C2358.22 736.375 2353.01 722.847 2343.42 712.74C2333.82 702.632 2320.63 696.772 2306.73 696.449L2132.64 692.421C2125.76 692.258 2118.91 693.459 2112.49 695.957C2106.08 698.456 2100.21 702.202 2095.24 706.981C2090.26 711.761 2086.27 717.48 2083.49 723.812C2080.71 730.144 2079.2 736.964 2079.05 743.883L2074.23 946.875L2102.21 977.145Z" fill="#FFDFA2"/>
<path d="M2279.45 765.887L2238.98 688.844L2242.74 686.86L2234.35 670.838L2195.85 691.369L2204.28 707.391L2208.04 705.377L2248.51 782.419C2241.47 814.692 2246.02 848.431 2261.36 877.648L2311.96 973.839C2313.18 976.167 2314.84 978.23 2316.86 979.911C2318.87 981.591 2321.19 982.856 2323.69 983.632C2326.19 984.409 2328.82 984.681 2331.42 984.435C2334.02 984.188 2336.55 983.427 2338.86 982.195L2392.66 953.578C2394.97 952.351 2397.02 950.677 2398.69 948.653C2400.36 946.63 2401.62 944.295 2402.39 941.783C2403.16 939.27 2403.43 936.63 2403.19 934.012C2402.95 931.394 2402.19 928.85 2400.97 926.525L2350.37 830.334C2335.06 801.086 2309.93 778.249 2279.45 765.887Z" fill="#D27E00"/>
<path d="M2200.93 949.31L2201.98 947.627C2200.95 949.265 2200.61 951.246 2201.04 953.134C2201.47 955.023 2202.62 956.664 2204.25 957.697L2214.8 964.34C2216.43 965.371 2218.4 965.71 2220.28 965.282C2222.15 964.853 2223.78 963.693 2224.81 962.055L2288 860.694C2288.5 859.885 2288.85 858.984 2289.01 858.041C2289.17 857.098 2289.14 856.133 2288.93 855.201C2288.72 854.268 2288.33 853.387 2287.78 852.607C2287.23 851.827 2286.53 851.163 2285.72 850.655L2275.17 844.011C2273.54 842.98 2271.57 842.641 2269.7 843.069C2267.82 843.498 2266.19 844.658 2265.16 846.296L2266.21 844.643L2260.8 822.429L2166.14 762.7C2159.62 758.592 2151.74 757.256 2144.23 758.986C2136.73 760.716 2130.21 765.371 2126.12 771.929L2074.86 854.111C2072.84 857.36 2071.47 860.978 2070.83 864.759C2070.19 868.54 2070.31 872.411 2071.16 876.149C2072.01 879.886 2073.59 883.419 2075.8 886.544C2078.01 889.669 2080.81 892.325 2084.04 894.361L2178.84 954.089L2200.93 949.31Z" fill="#D27E00"/>
<path d="M2453.81 974.079L2452.71 987.906L2449.72 987.666C2448.09 987.534 2446.48 988.059 2445.23 989.124C2443.99 990.19 2443.21 991.709 2443.08 993.347C2442.95 994.985 2443.47 996.609 2444.53 997.86C2445.59 999.112 2447.1 999.889 2448.73 1000.02L2574.53 1010C2575.34 1010.07 2576.15 1009.97 2576.92 1009.72C2577.69 1009.47 2578.4 1009.07 2579.02 1008.54C2579.63 1008.01 2580.14 1007.37 2580.51 1006.64C2580.88 1005.92 2581.1 1005.13 2581.17 1004.32C2581.23 1003.51 2581.14 1002.69 2580.89 1001.92C2580.64 1001.14 2580.24 1000.43 2579.72 999.806C2579.19 999.186 2578.55 998.676 2577.83 998.305C2577.11 997.935 2576.32 997.711 2575.52 997.646L2572.53 997.375L2573.6 983.578L2593.69 966.293L2607.83 786.327L2599.25 776.227L2590.67 766.097L2470.85 756.598L2450.73 773.852L2436.6 953.849L2453.81 974.079Z" fill="#EC827D"/>
<path d="M836.151 597.283C851.896 576.906 862.174 552.803 865.997 527.285C869.821 501.766 867.063 475.688 857.987 451.549C848.912 427.411 833.824 406.021 814.169 389.431C794.514 372.842 770.951 361.608 745.74 356.807C745.74 355.274 745.74 353.801 745.74 352.238C745.712 310.723 731.004 270.572 704.245 238.962C677.486 207.352 640.421 186.345 599.677 179.696C596.06 179.125 592.414 178.584 588.737 178.223C584.254 177.742 579.771 177.381 575.108 177.291C572.98 171.591 570.566 166.003 567.876 160.548C567.248 159.285 566.59 158.083 565.933 156.821C563.303 151.861 560.523 146.991 557.475 142.272L556.937 141.37C541.546 117.75 521.144 97.8518 497.196 83.1066C473.249 68.3614 446.351 59.1352 418.435 56.0911L416.223 55.8206C410.246 55.2494 403.969 54.8286 397.723 54.8286C378.53 54.8064 359.445 57.7049 341.115 63.4256C335.172 65.2831 329.327 67.4401 323.6 69.8884C312.287 74.702 301.466 80.6116 291.291 87.5334C286.21 90.9601 281.338 94.6575 276.616 98.5351C267.223 106.354 258.586 115.05 250.823 124.507C222.649 158.753 207.266 201.829 207.335 246.278C207.345 257.077 208.255 267.856 210.055 278.502C202.776 277.61 195.45 277.159 188.117 277.149C163.408 277.133 138.938 282.021 116.11 291.532C93.2817 301.044 72.5441 314.992 55.0854 332.579C50.8413 336.847 46.7765 341.326 42.9509 346.015C14.9183 380.156 -0.300956 423.115 -0.0496718 467.391C0.201612 511.667 15.9074 554.448 44.3257 588.265C19.1379 622.915 5.59017 664.739 5.65051 707.661C5.65051 713.884 6.00917 720.046 6.57704 726.148C6.57704 727.922 6.9357 729.695 7.14491 731.469C7.6829 736.098 8.37032 740.667 9.23708 745.176C9.53596 746.769 9.77507 748.362 10.1038 749.955C11.2994 755.576 12.7041 761.137 14.3479 766.578C14.8859 768.352 15.5136 770.035 16.0815 771.778C17.3666 775.596 18.7116 779.383 20.206 783.111C21.0728 785.215 21.9096 787.319 22.8362 789.423C24.48 793.151 26.2434 796.818 28.1264 800.455C29.3219 802.8 30.5473 805.114 31.8325 807.399C33.6258 810.585 35.4191 813.742 37.3618 816.808H37.5411C53.3476 841.74 74.3889 862.89 99.1876 878.774C123.986 894.658 151.942 904.889 181.09 908.751C210.239 912.612 239.875 910.01 267.918 901.126C295.96 892.243 321.729 877.293 343.416 857.328C370.626 883.238 405.429 899.617 442.643 904.026C479.856 908.435 517.491 900.638 549.943 881.796C588.238 915.965 638.022 934.205 689.197 932.819C740.371 931.433 789.106 910.523 825.518 874.331C861.929 838.139 883.291 789.374 885.271 737.926C887.252 686.477 869.702 636.197 836.181 597.283H836.151Z" fill="#FDB54A"/>
<path d="M652.338 635.158L460.696 833.791V613.395L554.783 501.182L460.696 580.96V438.779H424.77V725.727L224.699 595.569L424.77 756.388V1286.85H460.696V871.125L652.338 635.158Z" fill="#D27E00"/>
<path d="M573.642 1455.69C618.325 1428.25 638.35 1382.08 628.547 1361.34C617.937 1338.85 565.483 1326.77 509.592 1356.74C511.415 1348.26 538.793 1218.46 509.592 1207.16C486.16 1198.14 437.861 1269.32 427.221 1285.32C437.941 1191.69 435.649 1142.59 420.346 1138.02C409.109 1134.84 390.807 1155.59 365.442 1200.28C356.217 1168.01 347.061 1151.9 337.975 1151.94C320.162 1151.94 302.617 1214.06 285.342 1338.31C276.854 1292.98 258.801 1212.06 235.01 1211.73C205.302 1211.43 182.079 1337.17 175.533 1375.13C136.918 1334.21 113.276 1316.58 104.609 1322.23C93.6098 1329.38 106.561 1373.87 143.463 1455.69C286.926 1454.16 430.389 1457.23 573.642 1455.69Z" fill="#FDB54A"/>
<path d="M1472.08 610.208L1465.44 627.012L1461.68 625.509C1459.74 624.891 1457.63 625.034 1455.79 625.911C1453.95 626.787 1452.51 628.331 1451.75 630.233C1450.99 632.135 1450.98 634.254 1451.71 636.165C1452.45 638.077 1453.87 639.639 1455.7 640.538L1609.03 701.92C1610.02 702.41 1611.11 702.688 1612.22 702.737C1613.33 702.785 1614.44 702.603 1615.47 702.202C1616.51 701.8 1617.45 701.188 1618.24 700.404C1619.03 699.619 1619.65 698.679 1620.06 697.643C1620.47 696.606 1620.67 695.495 1620.64 694.379C1620.6 693.263 1620.34 692.166 1619.86 691.157C1619.39 690.148 1618.71 689.248 1617.88 688.514C1617.04 687.78 1616.06 687.227 1615 686.89L1611.24 685.387L1617.9 668.584L1649.58 654.847L1736.26 435.893C1733.6 429.671 1731.54 424.801 1729.44 419.962L1722.63 404.03L1576.81 345.685L1545.21 359.392L1458.54 578.345L1472.08 610.208Z" fill="#C83F38"/>
<path d="M2106.84 455.011L2102.6 453.237C2106.78 454.994 2111.49 455.009 2115.69 453.279C2119.89 451.549 2123.23 448.215 2124.98 444.009L2136.31 416.956C2137.18 414.873 2137.64 412.639 2137.65 410.381C2137.66 408.122 2137.23 405.884 2136.38 403.793C2135.53 401.702 2134.28 399.8 2132.7 398.195C2131.12 396.591 2129.24 395.315 2127.17 394.441L1868.72 285.265C1866.65 284.394 1864.42 283.943 1862.17 283.94C1859.92 283.937 1857.69 284.382 1855.61 285.247C1853.53 286.113 1851.64 287.384 1850.05 288.986C1848.46 290.588 1847.19 292.49 1846.34 294.583L1835.13 321.637C1834.24 323.709 1833.77 325.936 1833.74 328.192C1833.71 330.448 1834.12 332.688 1834.96 334.782C1835.79 336.877 1837.03 338.786 1838.59 340.399C1840.16 342.012 1842.03 343.297 1844.1 344.182L1839.85 342.408L1790.57 363.45L1688.68 607.713C1685.18 616.051 1683.35 625 1683.3 634.049C1683.25 643.097 1684.97 652.067 1688.38 660.445C1691.78 668.822 1696.79 676.442 1703.12 682.868C1709.46 689.294 1716.99 694.399 1725.29 697.892L1934.9 786.327C1943.19 789.844 1952.08 791.681 1961.08 791.734C1970.08 791.786 1979 790.052 1987.33 786.631C1995.66 783.21 2003.23 778.17 2009.62 771.799C2016.01 765.428 2021.09 757.852 2024.56 749.504L2126.42 505.301L2106.84 455.011Z" fill="#F6D8A1"/>
<path d="M1862.6 345.685L1952.59 175.758L1960.9 180.357L1979.61 145.037L1894.91 99.4069L1876.08 134.727L1884.39 139.176L1794.39 308.982C1726.95 335.98 1671.21 386.143 1637.06 450.562L1524.53 662.903C1519.05 673.251 1517.88 685.367 1521.27 696.585C1524.67 707.803 1532.36 717.204 1542.65 722.721L1661.42 786.387C1666.51 789.118 1672.09 790.813 1677.83 791.375C1683.58 791.938 1689.38 791.357 1694.9 789.665C1700.42 787.973 1705.55 785.205 1710.01 781.517C1714.47 777.829 1718.16 773.294 1720.87 768.171L1833.43 555.831C1867.54 491.449 1877.87 416.999 1862.6 345.685Z" fill="#D27E00"/>
<path d="M1962.78 458.468L1958.54 440.883L1962.48 439.921C1964.56 439.419 1966.35 438.107 1967.47 436.275C1968.58 434.443 1968.93 432.241 1968.43 430.152C1967.93 428.063 1966.63 426.259 1964.81 425.138C1962.98 424.016 1960.79 423.668 1958.72 424.17L1798.31 463.247C1797.27 463.486 1796.29 463.929 1795.43 464.551C1794.56 465.173 1793.83 465.961 1793.27 466.87C1792.71 467.78 1792.33 468.792 1792.16 469.848C1791.99 470.904 1792.04 471.984 1792.28 473.024C1792.53 474.064 1792.99 475.044 1793.61 475.907C1794.24 476.77 1795.03 477.499 1795.94 478.052C1796.86 478.605 1797.87 478.971 1798.92 479.128C1799.97 479.285 1801.04 479.231 1802.07 478.968L1806.02 478.037L1810.23 495.621L1792.3 525.23L1847.29 754.344L1862 763.362L1876.73 772.38L2029.16 735.346L2047.1 705.738L1992.13 476.624L1962.78 458.468Z" fill="#C83F38"/>
<path d="M1079.86 529.679L1076.39 528.957C1078.08 529.303 1079.83 529.309 1081.52 528.974C1083.21 528.639 1084.83 527.97 1086.26 527.006C1087.7 526.042 1088.93 524.802 1089.89 523.357C1090.85 521.912 1091.51 520.291 1091.84 518.587L1096.27 496.343C1096.61 494.641 1096.61 492.888 1096.28 491.184C1095.95 489.48 1095.28 487.859 1094.33 486.414C1093.37 484.97 1092.13 483.73 1090.7 482.767C1089.26 481.804 1087.65 481.136 1085.95 480.802L874.645 438.238C872.953 437.892 871.21 437.887 869.515 438.221C867.821 438.556 866.209 439.225 864.773 440.189C863.337 441.153 862.104 442.393 861.147 443.838C860.189 445.283 859.525 446.904 859.193 448.608L854.77 470.852C854.426 472.552 854.419 474.303 854.75 476.006C855.081 477.708 855.743 479.328 856.699 480.772C857.654 482.216 858.884 483.456 860.317 484.421C861.751 485.385 863.359 486.056 865.051 486.393L861.584 485.702L827.661 509.178L787.88 708.864C785.143 722.62 787.951 736.906 795.686 748.58C803.421 760.254 815.449 768.361 829.126 771.117L1000.53 805.595C1014.21 808.348 1028.42 805.524 1040.02 797.745C1051.63 789.966 1059.69 777.868 1062.43 764.113L1102.18 564.428L1079.86 529.679Z" fill="#FFDFA2"/>
<path d="M558.908 941.044L563.391 939.931C561.212 940.482 559.163 941.46 557.362 942.81C555.56 944.159 554.041 945.852 552.891 947.793C551.741 949.734 550.984 951.884 550.663 954.12C550.341 956.356 550.461 958.634 551.017 960.823L558.22 989.409C558.778 991.61 559.762 993.679 561.116 995.496C562.47 997.314 564.168 998.845 566.112 1000C568.055 1001.16 570.207 1001.92 572.443 1002.23C574.679 1002.55 576.956 1002.42 579.142 1001.85L850.765 932.507C852.957 931.953 855.019 930.968 856.83 929.608C858.642 928.248 860.167 926.54 861.318 924.583C862.468 922.626 863.222 920.459 863.534 918.207C863.847 915.956 863.712 913.664 863.139 911.465L855.936 882.848C855.382 880.646 854.4 878.576 853.046 876.757C851.692 874.939 849.994 873.408 848.048 872.254C846.103 871.1 843.949 870.344 841.712 870.032C839.475 869.72 837.198 869.856 835.014 870.434L839.497 869.291L866.217 822.609L801.42 565.901C799.211 557.144 795.309 548.912 789.936 541.672C784.564 534.433 777.825 528.329 770.107 523.71C762.388 519.09 753.84 516.045 744.951 514.748C736.062 513.451 727.006 513.928 718.301 516.152L497.966 572.393C489.26 574.615 481.074 578.539 473.876 583.943C466.678 589.346 460.609 596.123 456.015 603.886C451.422 611.649 448.394 620.246 447.105 629.186C445.815 638.126 446.29 647.233 448.501 655.989L513.298 912.697L558.908 941.044Z" fill="#FFDFA2"/>
<path d="M1286.15 738.983L1290.6 737.841C1286.21 738.968 1282.44 741.8 1280.12 745.716C1277.8 749.631 1277.12 754.312 1278.23 758.733L1285.46 787.319C1286.01 789.524 1286.99 791.598 1288.34 793.419C1289.69 795.241 1291.39 796.775 1293.34 797.932C1295.28 799.09 1297.44 799.848 1299.68 800.162C1301.92 800.476 1304.19 800.341 1306.38 799.764L1577.88 730.446C1580.07 729.889 1582.13 728.902 1583.94 727.541C1585.75 726.18 1587.28 724.472 1588.43 722.516C1589.58 720.56 1590.33 718.395 1590.64 716.145C1590.96 713.894 1590.83 711.604 1590.26 709.405L1583.02 680.818C1582.48 678.627 1581.5 676.567 1580.16 674.754C1578.82 672.942 1577.14 671.414 1575.21 670.258C1573.28 669.102 1571.14 668.34 1568.92 668.017C1566.69 667.694 1564.43 667.815 1562.25 668.374L1566.71 667.231L1593.43 620.549L1528.66 363.841C1526.45 355.084 1522.55 346.851 1517.17 339.612C1511.8 332.373 1505.06 326.269 1497.35 321.649C1489.63 317.03 1481.08 313.984 1472.19 312.688C1463.3 311.391 1454.24 311.868 1445.54 314.092L1225.2 370.333C1216.5 372.555 1208.31 376.479 1201.11 381.883C1193.92 387.286 1187.85 394.063 1183.25 401.826C1178.66 409.589 1175.63 418.186 1174.34 427.126C1173.05 436.066 1173.53 445.173 1175.74 453.929L1240.51 710.637L1286.15 738.983Z" fill="#FFDFA2"/>
<path d="M790.033 805.595L791.378 803.431C790.042 805.571 789.607 808.158 790.167 810.621C790.728 813.085 792.238 815.224 794.367 816.567L808.145 825.254C810.274 826.597 812.845 827.035 815.295 826.472C817.744 825.908 819.871 824.389 821.206 822.248L903.697 689.986C905.033 687.846 905.468 685.259 904.908 682.796C904.347 680.332 902.837 678.194 900.709 676.85L886.96 668.163C884.832 666.82 882.26 666.382 879.811 666.946C877.361 667.509 875.235 669.029 873.899 671.169L875.244 669.005L868.19 639.997L744.603 562.113C740.39 559.453 735.697 557.654 730.793 556.819C725.888 555.984 720.868 556.129 716.019 557.246C711.17 558.362 706.588 560.429 702.533 563.327C698.478 566.225 695.031 569.898 692.389 574.137L625.469 681.449C620.127 690.012 618.385 700.358 620.627 710.212C622.869 720.065 628.911 728.62 637.424 733.993L761.012 811.938L790.033 805.595Z" fill="#D27E00"/>
<path d="M1530.48 662.542V659.235C1530.42 660.842 1530.67 662.445 1531.24 663.95C1531.8 665.455 1532.66 666.831 1533.76 667.996C1534.86 669.162 1536.18 670.094 1537.64 670.737C1539.11 671.38 1540.69 671.721 1542.29 671.74L1563.21 672.281C1564.82 672.346 1566.42 672.083 1567.93 671.508C1569.44 670.933 1570.81 670.057 1571.97 668.934C1573.13 667.811 1574.06 666.464 1574.69 664.973C1575.32 663.482 1575.64 661.878 1575.64 660.257L1580.81 460.452C1580.89 457.22 1579.69 454.088 1577.48 451.743C1575.27 449.399 1572.22 448.034 1569.01 447.947L1548.09 447.406C1546.48 447.366 1544.89 447.646 1543.39 448.23C1541.9 448.815 1540.53 449.691 1539.37 450.809C1538.22 451.927 1537.29 453.265 1536.65 454.745C1536.02 456.224 1535.67 457.817 1535.65 459.43V456.153L1509.35 428.829L1322.58 423.839C1309.72 423.508 1297.26 428.324 1287.93 437.229C1278.59 446.135 1273.16 458.401 1272.82 471.333L1268.66 633.414C1268.49 639.818 1269.58 646.191 1271.87 652.171C1274.15 658.151 1277.58 663.62 1281.97 668.265C1286.35 672.91 1291.61 676.641 1297.43 679.243C1303.24 681.846 1309.52 683.27 1315.88 683.433L1502.57 688.363L1530.48 662.542Z" fill="#D27E00"/>
<path d="M965.983 820.625L959.318 837.458L955.552 835.925C953.611 835.308 951.508 835.451 949.667 836.327C947.826 837.203 946.382 838.747 945.626 840.649C944.87 842.551 944.856 844.671 945.589 846.582C946.321 848.493 947.745 850.056 949.575 850.955L1102.87 912.487C1104.85 913.284 1107.07 913.257 1109.03 912.411C1110.99 911.566 1112.54 909.971 1113.33 907.978C1114.12 905.985 1114.1 903.757 1113.26 901.784C1112.42 899.811 1110.83 898.254 1108.85 897.457L1105.08 895.954L1111.72 879.121L1143.43 865.414L1230.1 646.43C1227.44 640.208 1225.35 635.368 1223.29 630.499L1216.45 614.567L1070.71 556.101L1039 569.808L952.325 788.792L965.983 820.625Z" fill="#C83F38"/>
<path d="M1099.46 1735.25H599.228C588.034 1735.25 577.226 1731.13 568.849 1723.67C560.471 1716.2 555.106 1705.9 553.768 1694.73L445.334 793.572H1253.27L1144.92 1694.76C1143.58 1705.93 1138.21 1716.22 1129.84 1723.68C1121.46 1731.14 1110.65 1735.25 1099.46 1735.25Z" fill="#FBD15B"/>
<path d="M1288.72 675.738H409.976C397.332 675.738 387.082 686.047 387.082 698.764V770.516C387.082 783.233 397.332 793.542 409.976 793.542H1288.72C1301.36 793.542 1311.61 783.233 1311.61 770.516V698.764C1311.61 686.047 1301.36 675.738 1288.72 675.738Z" fill="#FBD15B"/>
<path d="M445.453 793.542H1253.24L1245.05 861.867L445.453 793.542Z" fill="#F2B827"/>
<path d="M849.361 1626.52C844.19 1626.52 839.23 1624.46 835.571 1620.78C831.911 1617.11 829.852 1612.12 829.844 1606.92V910.293C830.041 905.223 832.182 900.428 835.818 896.912C839.454 893.396 844.302 891.432 849.346 891.432C854.39 891.432 859.238 893.396 862.874 896.912C866.509 900.428 868.65 905.223 868.848 910.293V1606.92C868.848 1609.5 868.344 1612.04 867.364 1614.42C866.385 1616.8 864.95 1618.96 863.14 1620.78C861.331 1622.6 859.182 1624.04 856.818 1625.03C854.454 1626.01 851.92 1626.52 849.361 1626.52Z" fill="#F2B827"/>
<path d="M1006.24 1626.55C1005.48 1626.54 1004.73 1626.49 1003.97 1626.4C1001.43 1626.1 998.968 1625.3 996.731 1624.05C994.495 1622.79 992.526 1621.11 990.938 1619.08C989.351 1617.06 988.175 1614.75 987.478 1612.27C986.781 1609.79 986.576 1607.2 986.876 1604.64L1067.96 908.008C1068.26 905.442 1069.06 902.961 1070.31 900.705C1071.56 898.449 1073.24 896.464 1075.26 894.861C1077.27 893.259 1079.58 892.072 1082.05 891.367C1084.53 890.662 1087.11 890.454 1089.66 890.754C1092.21 891.054 1094.68 891.857 1096.92 893.116C1099.17 894.375 1101.14 896.066 1102.73 898.092C1104.33 900.119 1105.51 902.441 1106.21 904.926C1106.91 907.412 1107.12 910.011 1106.82 912.577L1025.61 1609.21C1025.06 1613.98 1022.78 1618.38 1019.21 1621.58C1015.64 1624.78 1011.02 1626.55 1006.24 1626.55Z" fill="#F2B827"/>
<path d="M692.449 1626.55C687.674 1626.54 683.069 1624.77 679.506 1621.57C675.942 1618.38 673.667 1613.98 673.111 1609.21L592.025 912.577C591.727 910.011 591.934 907.412 592.634 904.926C593.335 902.441 594.516 900.119 596.109 898.092C597.702 896.066 599.676 894.375 601.919 893.116C604.162 891.857 606.629 891.054 609.181 890.754C611.732 890.454 614.317 890.662 616.788 891.367C619.259 892.072 621.568 893.259 623.583 894.861C625.598 896.464 627.279 898.449 628.531 900.705C629.783 902.961 630.581 905.442 630.879 908.008L711.966 1604.64C712.266 1607.2 712.062 1609.79 711.365 1612.27C710.668 1614.75 709.492 1617.06 707.904 1619.08C706.316 1621.11 704.347 1622.79 702.111 1624.05C699.875 1625.3 697.414 1626.1 694.87 1626.4C694.067 1626.5 693.258 1626.55 692.449 1626.55Z" fill="#F2B827"/>
<path d="M2518.01 1635.24H2139.99C2131.53 1635.24 2123.36 1632.13 2117.02 1626.48C2110.69 1620.84 2106.63 1613.06 2105.62 1604.61L2023.72 923.609H2634.22L2552.44 1604.7C2551.41 1613.14 2547.33 1620.91 2540.99 1626.54C2534.64 1632.16 2526.47 1635.26 2518.01 1635.24Z" fill="#FDA44A"/>
<path d="M2661.03 834.573H1996.91C1987.36 834.573 1979.61 842.365 1979.61 851.977V906.205C1979.61 915.817 1987.36 923.609 1996.91 923.609H2661.03C2670.59 923.609 2678.33 915.817 2678.33 906.205V851.977C2678.33 842.365 2670.59 834.573 2661.03 834.573Z" fill="#FDA34A"/>
<g style="mix-blend-mode:multiply">
<path d="M2023.72 923.609H2634.22L2628 975.251L2023.72 923.609Z" fill="#D1D3D4"/>
</g>
<g style="mix-blend-mode:multiply">
<path d="M2328.97 1557.93C2323.8 1557.93 2318.85 1555.86 2315.19 1552.18C2311.54 1548.51 2309.48 1543.52 2309.48 1538.33V1011.86C2309.22 1009.14 2309.53 1006.39 2310.39 1003.8C2311.25 1001.2 2312.64 998.811 2314.47 996.786C2316.29 994.761 2318.52 993.142 2321.01 992.035C2323.5 990.927 2326.19 990.355 2328.91 990.355C2331.63 990.355 2334.32 990.927 2336.81 992.035C2339.3 993.142 2341.53 994.761 2343.36 996.786C2345.19 998.811 2346.58 1001.2 2347.43 1003.8C2348.29 1006.39 2348.6 1009.14 2348.34 1011.86V1538.33C2348.33 1543.5 2346.29 1548.46 2342.66 1552.13C2339.04 1555.8 2334.12 1557.89 2328.97 1557.93Z" fill="#D1D3D4"/>
</g>
<g style="mix-blend-mode:multiply">
<path d="M2447.57 1557.96C2446.8 1558 2446.03 1558 2445.27 1557.96C2442.72 1557.66 2440.26 1556.86 2438.02 1555.6C2435.79 1554.35 2433.82 1552.66 2432.23 1550.64C2430.64 1548.62 2429.47 1546.3 2428.77 1543.82C2428.07 1541.34 2427.87 1538.75 2428.17 1536.19L2489.44 1009.73C2490.04 1004.55 2492.67 999.819 2496.74 996.583C2500.81 993.347 2505.99 991.87 2511.14 992.475C2516.29 993.081 2520.99 995.721 2524.21 999.814C2527.43 1003.91 2528.9 1009.12 2528.29 1014.3L2466.9 1540.61C2466.35 1545.38 2464.07 1549.78 2460.51 1552.98C2456.95 1556.17 2452.34 1557.94 2447.57 1557.96Z" fill="#D1D3D4"/>
</g>
<g style="mix-blend-mode:multiply">
<path d="M2210.38 1557.96C2205.6 1557.94 2201 1556.17 2197.43 1552.98C2193.87 1549.78 2191.59 1545.38 2191.04 1540.61L2129.77 1014.15C2129.47 1011.58 2129.68 1008.98 2130.38 1006.5C2131.08 1004.01 2132.26 1001.69 2133.85 999.663C2135.44 997.637 2137.42 995.946 2139.66 994.687C2141.9 993.427 2144.37 992.625 2146.92 992.325C2149.47 992.025 2152.06 992.233 2154.53 992.938C2157 993.643 2159.31 994.83 2161.33 996.432C2163.34 998.035 2165.02 1000.02 2166.27 1002.28C2167.53 1004.53 2168.32 1007.01 2168.62 1009.58L2229.65 1536.04C2229.95 1538.6 2229.75 1541.19 2229.05 1543.67C2228.35 1546.15 2227.18 1548.47 2225.59 1550.49C2224 1552.51 2222.03 1554.2 2219.8 1555.45C2217.56 1556.71 2215.1 1557.51 2212.56 1557.8C2211.83 1557.9 2211.1 1557.95 2210.38 1557.96Z" fill="#D1D3D4"/>
</g>
<path d="M1949.75 1735.25H1369.44C1356.46 1735.25 1343.92 1730.46 1334.2 1721.8C1324.48 1713.14 1318.25 1701.2 1316.69 1688.23L1191.16 642.763H2128.03L2002.5 1688.23C2000.94 1701.2 1994.71 1713.14 1984.99 1721.8C1975.27 1730.46 1962.74 1735.25 1949.75 1735.25Z" fill="#EC827D"/>
<path d="M2169.28 506.112H1149.89C1135.21 506.112 1123.31 518.077 1123.31 532.835V616.04C1123.31 630.799 1135.21 642.763 1149.89 642.763H2169.28C2183.95 642.763 2195.85 630.799 2195.85 616.04V532.835C2195.85 518.077 2183.95 506.112 2169.28 506.112Z" fill="#EC827D"/>
<path d="M1191.04 642.763H2128.15L2118.62 722.03L1191.04 642.763Z" fill="#DD6262"/>
<path d="M1659.6 1605.99C1654.42 1605.99 1649.46 1603.92 1645.8 1600.24C1642.14 1596.56 1640.08 1591.57 1640.08 1586.36V778.241C1639.82 775.518 1640.13 772.769 1640.99 770.173C1641.84 767.576 1643.23 765.189 1645.06 763.163C1646.89 761.138 1649.12 759.52 1651.61 758.412C1654.1 757.305 1656.79 756.733 1659.51 756.733C1662.23 756.733 1664.92 757.305 1667.41 758.412C1669.89 759.52 1672.12 761.138 1673.95 763.163C1675.78 765.189 1677.17 767.576 1678.03 770.173C1678.89 772.769 1679.19 775.518 1678.93 778.241V1586.36C1678.94 1591.54 1676.91 1596.51 1673.29 1600.19C1669.67 1603.86 1664.74 1605.95 1659.6 1605.99Z" fill="#DD6262"/>
<path d="M1841.62 1605.99C1840.85 1606.05 1840.08 1606.05 1839.31 1605.99C1836.77 1605.69 1834.31 1604.89 1832.07 1603.64C1829.84 1602.38 1827.87 1600.69 1826.28 1598.67C1824.69 1596.65 1823.52 1594.34 1822.82 1591.86C1822.12 1589.38 1821.92 1586.79 1822.22 1584.23L1916.28 776.107C1916.88 770.925 1919.5 766.196 1923.57 762.96C1927.64 759.724 1932.82 758.247 1937.97 758.853C1943.13 759.459 1947.83 762.098 1951.05 766.191C1954.26 770.284 1955.73 775.494 1955.13 780.676L1860.95 1588.65C1860.4 1593.42 1858.12 1597.81 1854.56 1601.01C1851 1604.21 1846.39 1605.98 1841.62 1605.99Z" fill="#DD6262"/>
<path d="M1477.58 1605.99C1472.8 1605.99 1468.19 1604.22 1464.63 1601.02C1461.06 1597.82 1458.79 1593.42 1458.24 1588.65L1364.15 780.526C1363.55 775.344 1365.02 770.133 1368.24 766.041C1371.46 761.948 1376.16 759.308 1381.31 758.703C1386.46 758.097 1391.64 759.574 1395.71 762.81C1399.78 766.046 1402.41 770.775 1403.01 775.957L1496.98 1584.14C1497.28 1586.7 1497.07 1589.29 1496.38 1591.77C1495.68 1594.25 1494.5 1596.56 1492.91 1598.58C1491.33 1600.6 1489.36 1602.29 1487.12 1603.55C1484.89 1604.8 1482.42 1605.6 1479.88 1605.9C1479.12 1605.99 1478.35 1606.02 1477.58 1605.99Z" fill="#DD6262"/>
<path d="M1260.35 1779.01H1079.32L1051.17 1750.7V1478.93L1079.32 1450.61H1260.35L1288.48 1478.93V1750.82L1260.35 1779.01Z" fill="#EC827D"/>
<g style="mix-blend-mode:multiply">
<path d="M1051.17 1750.7H1288.48L1260.35 1779.01H1079.32L1051.17 1750.7Z" fill="#E6E7E8"/>
</g>
<path d="M1079.32 1450.49H1260.35L1288.48 1478.81H1051.17L1079.32 1450.49Z" fill="#DD6262"/>
<path d="M1079.32 1727.43C1076.34 1727.43 1073.49 1726.24 1071.38 1724.13C1069.28 1722.02 1068.09 1719.15 1068.08 1716.16V1499.31C1068.08 1496.31 1069.27 1493.44 1071.37 1491.32C1073.48 1489.2 1076.34 1488.01 1079.32 1488.01C1082.3 1488.01 1085.16 1489.2 1087.27 1491.32C1089.37 1493.44 1090.56 1496.31 1090.56 1499.31V1716.16C1090.56 1717.64 1090.27 1719.11 1089.7 1720.48C1089.14 1721.85 1088.31 1723.09 1087.26 1724.14C1086.22 1725.19 1084.98 1726.02 1083.62 1726.58C1082.26 1727.15 1080.79 1727.43 1079.32 1727.43Z" fill="#DD6262"/>
<path d="M1153.68 1730.71C1144.73 1730.88 1135.94 1728.25 1128.55 1723.16C1098.66 1702.12 1104.16 1644.47 1140.86 1592.13C1157.98 1567.66 1179.41 1548.31 1201.14 1537.64C1224.01 1526.39 1244.66 1526 1259.4 1536.4C1289.28 1557.44 1283.78 1615.07 1247.08 1667.43C1219.26 1707.05 1182.64 1730.71 1153.68 1730.71ZM1234.38 1540.19C1224.5 1540.54 1214.82 1543.13 1206.07 1547.77C1186.02 1557.62 1166.08 1575.69 1150.03 1598.63C1118.08 1644.23 1111.18 1697.01 1135.09 1713.93C1159 1730.86 1206.05 1706.54 1237.97 1660.91C1269.89 1615.28 1276.82 1562.52 1252.91 1545.63C1247.45 1541.92 1240.97 1540.01 1234.38 1540.19Z" fill="#C83F38"/>
<path d="M1237.94 1606.92C1256.44 1662.41 1251.74 1714.05 1227.42 1722.26C1203.09 1730.47 1168.36 1692.2 1149.71 1636.62C1131.06 1581.04 1135.9 1529.49 1160.23 1521.28C1184.56 1513.08 1219.44 1551.4 1237.94 1606.92Z" fill="#C83F38"/>
<path d="M927.817 1770.24H770.904L746.516 1745.71V1510.01C756.02 1500.42 761.46 1494.98 770.904 1485.48H927.817L952.205 1510.01V1745.71L927.817 1770.24Z" fill="#FFE2D6"/>
<path d="M942.073 1688.35H756.229V1735.07H942.073V1688.35Z" fill="#EC827D"/>
<path d="M927.817 1459.27H770.904V1485.48H927.817V1459.27Z" fill="#FFCDB7"/>
<g style="mix-blend-mode:multiply">
<path d="M746.486 1745.71H952.206L927.817 1770.24H770.905L746.486 1745.71Z" fill="#E6E7E8"/>
</g>
<path d="M770.905 1485.48H927.817L952.206 1510.01H746.486L770.905 1485.48Z" fill="#FFD8C8"/>
<path d="M770.905 1722.65C769.082 1722.65 767.333 1721.92 766.044 1720.63C764.755 1719.33 764.031 1717.57 764.031 1715.74V1527.81C763.969 1526.86 764.1 1525.91 764.417 1525.02C764.733 1524.13 765.228 1523.32 765.871 1522.63C766.514 1521.93 767.292 1521.38 768.155 1521.01C769.018 1520.63 769.949 1520.44 770.89 1520.44C771.831 1520.44 772.762 1520.63 773.625 1521.01C774.488 1521.38 775.265 1521.93 775.908 1522.63C776.551 1523.32 777.047 1524.13 777.363 1525.02C777.68 1525.91 777.811 1526.86 777.749 1527.81V1715.74C777.753 1716.64 777.579 1717.54 777.237 1718.38C776.895 1719.22 776.391 1719.98 775.755 1720.62C775.119 1721.27 774.363 1721.78 773.531 1722.12C772.699 1722.47 771.806 1722.65 770.905 1722.65Z" fill="#F7A4A4"/>
<path d="M931.853 1466.15H766.84C765.025 1466.15 763.284 1465.43 762.001 1464.14C760.717 1462.85 759.996 1461.1 759.996 1459.27C759.996 1457.44 760.717 1455.69 762.001 1454.4C763.284 1453.11 765.025 1452.39 766.84 1452.39H931.853C932.751 1452.39 933.641 1452.56 934.472 1452.91C935.302 1453.26 936.057 1453.76 936.692 1454.4C937.328 1455.04 937.832 1455.8 938.176 1456.64C938.52 1457.47 938.697 1458.37 938.697 1459.27C938.697 1460.17 938.52 1461.07 938.176 1461.9C937.832 1462.74 937.328 1463.5 936.692 1464.14C936.057 1464.78 935.302 1465.28 934.472 1465.63C933.641 1465.98 932.751 1466.15 931.853 1466.15Z" fill="#FFE2D6"/>
<path d="M2122.74 1384.93V1722.17C2122.74 1732.26 2118.76 1741.94 2111.66 1749.08C2104.57 1756.22 2094.94 1760.23 2084.91 1760.23H1962.63C1952.6 1760.22 1942.98 1756.21 1935.89 1749.07C1928.79 1741.94 1924.8 1732.26 1924.79 1722.17V1384.93C1924.79 1350.79 1937.86 1317.96 1961.29 1293.25L1984.3 1268.96H2063.48L2086.49 1293.25C2108.49 1316.59 2121.37 1347.15 2122.74 1379.28C2122.74 1381.12 2122.74 1383.01 2122.74 1384.93Z" fill="#FBD15B"/>
<path d="M1962.57 1719.8C1961.1 1719.8 1959.64 1719.5 1958.28 1718.93C1956.92 1718.37 1955.68 1717.53 1954.64 1716.48C1953.6 1715.43 1952.77 1714.19 1952.21 1712.82C1951.65 1711.45 1951.36 1709.98 1951.37 1708.49V1384.96C1951.35 1358.98 1960.82 1333.9 1977.97 1314.47C1979.95 1312.23 1982.73 1310.88 1985.71 1310.7C1988.69 1310.53 1991.61 1311.55 1993.84 1313.54C1996.06 1315.53 1997.41 1318.34 1997.59 1321.33C1997.76 1324.32 1996.74 1327.26 1994.76 1329.5C1981.26 1344.8 1973.82 1364.54 1973.84 1384.99V1708.49C1973.84 1709.98 1973.55 1711.45 1972.98 1712.83C1972.42 1714.2 1971.59 1715.45 1970.54 1716.5C1969.49 1717.55 1968.25 1718.38 1966.88 1718.94C1965.52 1719.51 1964.05 1719.8 1962.57 1719.8Z" fill="#F9E3AC"/>
<path d="M2063.33 1229.31H1984.15V1268.93H2063.33V1229.31Z" fill="#FBD15B"/>
<path d="M1996.29 1189.82H2051.16C2055.85 1189.82 2060.35 1191.69 2063.67 1195.03C2066.99 1198.37 2068.85 1202.89 2068.85 1207.61V1229.43H1978.59V1207.73C1978.58 1205.38 1979.02 1203.06 1979.9 1200.88C1980.79 1198.71 1982.09 1196.74 1983.73 1195.07C1985.38 1193.41 1987.33 1192.08 1989.49 1191.18C1991.64 1190.28 1993.95 1189.82 1996.29 1189.82Z" fill="#D27E00"/>
<path d="M2122.74 1384.93V1691.54H1984.18V1379.28H2122.62C2122.74 1381.12 2122.74 1383.01 2122.74 1384.93Z" fill="#F9FBFC"/>
<path d="M2122.74 1419.17H2015.92V1526.6H2122.74V1419.17Z" fill="#F9E3AC"/>
<path d="M2122.74 1587.47H2015.92V1596.64H2122.74V1587.47Z" fill="#F9E3AC"/>
<path d="M2122.74 1644.65H2015.92V1653.81H2122.74V1644.65Z" fill="#F9E3AC"/>
<path d="M2122.74 1611.82H2015.92V1620.99H2122.74V1611.82Z" fill="#F9E3AC"/>
<path d="M505.109 1585.31H706.824V1732.03C706.824 1742.14 702.831 1751.83 695.724 1758.98C688.617 1766.13 678.977 1770.15 668.926 1770.15H542.948C532.907 1770.13 523.283 1766.11 516.188 1758.96C509.094 1751.81 505.109 1742.13 505.109 1732.03V1585.31Z" fill="#EC827D"/>
<path d="M706.764 1585.31H505.049L525.731 1563.91H686.081L706.764 1585.31Z" fill="#F7A4A4"/>
<path d="M683.542 1528.5H528.273C523.041 1528.5 518.799 1532.76 518.799 1538.03V1554.38C518.799 1559.64 523.041 1563.91 528.273 1563.91H683.542C688.775 1563.91 693.017 1559.64 693.017 1554.38V1538.03C693.017 1532.76 688.775 1528.5 683.542 1528.5Z" fill="#C83F38"/>
<path d="M527.315 1746.94C525.841 1746.94 524.381 1746.65 523.019 1746.08C521.658 1745.51 520.421 1744.68 519.38 1743.63C518.339 1742.58 517.514 1741.33 516.952 1739.96C516.391 1738.59 516.104 1737.12 516.107 1735.64V1602.17C516.256 1599.28 517.503 1596.55 519.592 1594.56C521.68 1592.57 524.45 1591.45 527.33 1591.45C530.211 1591.45 532.981 1592.57 535.069 1594.56C537.158 1596.55 538.405 1599.28 538.553 1602.17V1735.64C538.553 1738.63 537.369 1741.51 535.262 1743.63C533.154 1745.75 530.296 1746.94 527.315 1746.94Z" fill="#F7A4A4"/>
<path d="M706.765 1621.77H566.291V1718.41H706.765V1621.77Z" fill="#F7A4A4"/>
<path d="M2311.19 1305.85H2244.6C2204.19 1353.9 2182.01 1414.79 2182.01 1477.73V1685.14C2182.01 1695.24 2186 1704.93 2193.1 1712.08C2200.2 1719.23 2209.83 1723.24 2219.88 1723.25H2335.91C2345.96 1723.25 2355.6 1719.24 2362.7 1712.09C2369.81 1704.94 2373.8 1695.25 2373.8 1685.14V1477.73C2373.8 1414.79 2351.63 1353.9 2311.22 1305.85H2311.19Z" fill="#EC827D"/>
<path d="M2219.85 1696.41C2218.37 1696.41 2216.91 1696.12 2215.55 1695.55C2214.19 1694.98 2212.95 1694.15 2211.91 1693.1C2210.87 1692.05 2210.05 1690.8 2209.49 1689.43C2208.92 1688.06 2208.64 1686.59 2208.64 1685.11V1477.7C2208.62 1432.41 2221.4 1388.05 2245.49 1349.79C2247.17 1347.46 2249.66 1345.86 2252.46 1345.32C2255.27 1344.77 2258.17 1345.32 2260.59 1346.85C2263.01 1348.38 2264.76 1350.78 2265.48 1353.56C2266.2 1356.34 2265.84 1359.29 2264.47 1361.82C2242.65 1396.47 2231.07 1436.65 2231.09 1477.67V1685.08C2231.09 1686.56 2230.8 1688.04 2230.24 1689.41C2229.68 1690.79 2228.85 1692.04 2227.81 1693.09C2226.76 1694.14 2225.52 1694.98 2224.16 1695.55C2222.79 1696.12 2221.33 1696.41 2219.85 1696.41Z" fill="#F7A4A4"/>
<path d="M2311.19 1139.98H2244.57V1305.85H2311.19V1139.98Z" fill="#EC827D"/>
<path d="M2251.29 1096.9H2304.37C2308.34 1096.9 2312.14 1098.49 2314.94 1101.3C2317.74 1104.12 2319.32 1107.95 2319.32 1111.93V1140.07H2236.44V1111.93C2236.44 1107.96 2238 1104.15 2240.78 1101.34C2243.57 1098.52 2247.34 1096.93 2251.29 1096.9Z" fill="#C83F38"/>
<path d="M2373.77 1491.25H2270.63V1628.44H2373.77V1491.25Z" fill="#F7A4A4"/>
<g style="mix-blend-mode:multiply">
<path d="M1955.04 1026.26L1643.61 483.748C1636.31 471.032 1625.81 460.473 1613.17 453.131C1600.53 445.789 1586.19 441.924 1571.59 441.924C1556.99 441.924 1542.65 445.789 1530.01 453.131C1517.37 460.473 1506.87 471.032 1499.58 483.748L1188.14 1026.26C1180.84 1038.97 1177 1053.39 1177 1068.07C1177 1082.75 1180.84 1097.17 1188.14 1109.88C1195.44 1122.6 1205.93 1133.15 1218.57 1140.49C1231.21 1147.83 1245.55 1151.7 1260.14 1151.7H1882.95C1897.55 1151.7 1911.88 1147.83 1924.52 1140.49C1937.16 1133.15 1947.66 1122.6 1954.95 1109.88C1962.25 1097.17 1966.09 1082.75 1966.09 1068.07C1966.09 1053.39 1962.25 1038.97 1954.95 1026.26H1955.04Z" fill="#BCBEC0"/>
</g>
<path d="M1992.1 988.958L1680.67 446.474C1673.37 433.765 1662.87 423.213 1650.24 415.876C1637.6 408.539 1623.26 404.676 1608.67 404.676C1594.08 404.676 1579.74 408.539 1567.1 415.876C1554.46 423.213 1543.97 433.765 1536.67 446.474L1225.2 988.958C1217.9 1001.67 1214.05 1016.08 1214.05 1030.76C1214.04 1045.44 1217.87 1059.86 1225.17 1072.58C1232.46 1085.29 1242.95 1095.85 1255.58 1103.2C1268.22 1110.55 1282.55 1114.42 1297.14 1114.43H1920.01C1934.62 1114.44 1948.97 1110.59 1961.63 1103.26C1974.28 1095.92 1984.8 1085.36 1992.1 1072.64C1999.41 1059.92 2003.26 1045.49 2003.26 1030.8C2003.26 1016.11 1999.41 1001.68 1992.1 988.958Z" fill="#FBD15B"/>
<path d="M1920.1 1086.68H1297.14C1287.39 1086.67 1277.81 1084.09 1269.37 1079.18C1260.93 1074.27 1253.92 1067.22 1249.04 1058.72C1244.16 1050.23 1241.6 1040.59 1241.59 1030.79C1241.59 1020.98 1244.15 1011.34 1249.02 1002.85L1560.46 460.332C1565.34 451.843 1572.36 444.796 1580.8 439.897C1589.25 434.997 1598.83 432.418 1608.58 432.418C1618.33 432.418 1627.91 434.997 1636.35 439.897C1644.8 444.796 1651.82 451.843 1656.7 460.332L1968.13 1002.85C1973 1011.34 1975.57 1020.98 1975.56 1030.79C1975.56 1040.59 1972.99 1050.23 1968.12 1058.72C1963.24 1067.22 1956.23 1074.27 1947.79 1079.18C1939.34 1084.09 1929.76 1086.67 1920.01 1086.68H1920.1ZM1608.67 445.362C1601.17 445.317 1593.79 447.281 1587.29 451.053C1580.79 454.825 1575.41 460.269 1571.7 466.824L1260.26 1009.34C1256.52 1015.86 1254.55 1023.25 1254.54 1030.78C1254.54 1038.31 1256.51 1045.71 1260.24 1052.23C1263.98 1058.75 1269.36 1064.17 1275.83 1067.95C1282.31 1071.72 1289.66 1073.71 1297.14 1073.73H1920.01C1927.51 1073.73 1934.87 1071.75 1941.36 1067.98C1947.85 1064.22 1953.24 1058.8 1956.98 1052.27C1960.73 1045.74 1962.7 1038.34 1962.69 1030.8C1962.69 1023.26 1960.71 1015.86 1956.95 1009.34L1645.61 466.824C1641.9 460.271 1636.52 454.829 1630.03 451.057C1623.54 447.285 1616.17 445.319 1608.67 445.362Z" fill="#E0A826"/>
<path d="M1717.88 690.648L1707.9 673.333C1697.29 654.6 1681.47 639.397 1662.38 629.597C1646.62 621.596 1629.22 617.429 1611.57 617.429C1593.92 617.429 1576.51 621.596 1560.76 629.597C1579.95 639.341 1595.86 654.552 1606.52 673.333L1611.66 682.351L1641.78 734.895L1611.66 752.39L1748.9 832.078V672.762L1717.88 690.648Z" fill="#D27E00"/>
<path d="M1606.52 673.333L1611.66 682.351C1605.41 693.203 1594.23 712.711 1581.53 734.895L1562.97 682.231L1505.46 690.708L1515.33 673.333C1525.93 654.608 1541.74 639.406 1560.82 629.597C1579.99 639.35 1595.88 654.561 1606.52 673.333Z" fill="#E0A719"/>
<path d="M1388.6 822.158L1419.6 840.194L1409.64 857.568C1398.82 876.17 1393.62 897.544 1394.7 919.07C1395.71 936.769 1400.84 953.983 1409.66 969.33C1418.48 984.678 1430.76 997.732 1445.51 1007.44C1444.39 985.895 1449.59 964.49 1460.45 945.883L1465.62 936.865C1471.87 926.044 1483.05 906.505 1495.81 884.351L1525.82 901.786V742.47L1388.6 822.158Z" fill="#D27E00"/>
<path d="M1460.33 945.853L1465.5 936.835H1525.82L1489.74 979.279L1525.82 1025.15H1505.88C1484.45 1025.25 1463.46 1019.07 1445.48 1007.35C1444.34 985.834 1449.51 964.452 1460.33 945.853Z" fill="#E0A719"/>
<path d="M1768.12 936.895H1697.65V901.786L1560.16 981.534L1697.47 1061.1V1025.03H1717.4C1738.83 1025.13 1759.82 1018.95 1777.81 1007.23C1792.55 997.523 1804.83 984.47 1813.66 969.122C1822.48 953.774 1827.6 936.559 1828.62 918.86C1810.64 930.697 1789.61 936.968 1768.12 936.895Z" fill="#D27E00"/>
<path d="M1768.12 936.895H1757.81C1751.59 926.044 1740.39 906.535 1727.62 884.381L1782.23 894.572L1803.69 840.224L1813.67 857.568C1824.5 876.17 1829.69 897.544 1828.61 919.07C1810.62 930.833 1789.59 937.031 1768.12 936.895Z" fill="#E0A719"/>
<path d="M2067.66 1934H2341.49C2350.05 1933.97 2358.25 1930.53 2364.3 1924.45C2370.34 1918.36 2373.75 1910.11 2373.77 1901.51C2373.75 1892.9 2370.34 1884.66 2364.29 1878.58C2358.25 1872.49 2350.05 1869.07 2341.49 1869.04H2067.66C2059.11 1869.07 2050.91 1872.49 2044.86 1878.58C2038.81 1884.66 2035.4 1892.9 2035.38 1901.51C2035.4 1910.11 2038.81 1918.36 2044.86 1924.45C2050.91 1930.53 2059.1 1933.97 2067.66 1934Z" fill="#FFDFA2"/>
<path d="M1636.46 99.4069H884.748C874.563 99.4069 866.307 107.711 866.307 117.954V117.984C866.307 128.227 874.563 136.53 884.748 136.53H1636.46C1646.65 136.53 1654.9 128.227 1654.9 117.984V117.954C1654.9 107.711 1646.65 99.4069 1636.46 99.4069Z" fill="#FFDFA2"/>
<path d="M1397.66 117.984H956.569C949.452 117.929 942.642 115.061 937.609 109.999C932.576 104.937 929.725 98.0881 929.67 90.9301C929.717 83.7696 932.566 76.9159 937.601 71.8525C942.635 66.7892 949.45 63.9238 956.569 63.8765H1397.66C1404.78 63.9238 1411.59 66.7892 1416.63 71.8525C1421.66 76.9159 1424.51 83.7696 1424.56 90.9301C1424.51 98.0905 1421.66 104.944 1416.63 110.008C1411.59 115.071 1404.78 117.936 1397.66 117.984Z" fill="#FFDFA2"/>
<path d="M1172.42 83.5054H1047.76C1036.76 83.4736 1026.22 79.0645 1018.44 71.2412C1010.66 63.418 1006.28 52.8164 1006.24 41.7527C1006.28 30.6889 1010.66 20.0874 1018.44 12.2641C1026.22 4.44084 1036.76 0.0317242 1047.76 0L1172.42 0C1183.42 0.0317242 1193.96 4.44084 1201.74 12.2641C1209.52 20.0874 1213.9 30.6889 1213.94 41.7527C1213.9 52.8164 1209.52 63.418 1201.74 71.2412C1193.96 79.0645 1183.42 83.4736 1172.42 83.5054Z" fill="#FFDFA2"/>
</svg>
